<svg xmlns="http://www.w3.org/2000/svg" viewBox="0 0 96 96" role="img" aria-label="きのこ派">
  <!-- きのこ派ファビコン：暗色の角丸下地 × ライムのスプラ × チョコのきのこ -->
  <rect width="96" height="96" rx="20" fill="#101217"/>
  <g>
    <path d="M48 12 C62 12 80 19 83 37 C86 52 78 63 70 72 C61 82 42 85 30 78 C16 70 11 55 14 40 C18 23 34 12 48 12 Z" fill="#c8ff00"/>
    <circle cx="18" cy="20" r="3" fill="#c8ff00"/>
    <circle cx="82" cy="22" r="3.4" fill="#c8ff00"/>
    <circle cx="20" cy="80" r="3" fill="#c8ff00"/>
  </g>
  <path d="M30 52 C30 38 38 29 48 29 C58 29 66 38 66 52 Z" fill="#3a2415"/>
  <rect x="42" y="51" width="12" height="20" rx="6" fill="#f1e9d8"/>
  <circle cx="45" cy="59" r="1.2" fill="#7a5a3a"/>
  <circle cx="50" cy="64" r="1.1" fill="#7a5a3a"/>
</svg>
