<svg xmlns="http://www.w3.org/2000/svg" viewBox="0 0 96 96" role="img" aria-label="clean hands icon">
  <rect x="6" y="6" width="84" height="84" rx="16" fill="#101217"/>
  <path d="M30 54V38c0-4 6-4 6 0v14m0-16v-8c0-4 7-4 7 0v24m0-18v-8c0-4 7-4 7 0v26m0-18v-6c0-4 7-4 7 0v27" fill="none" stroke="#f7f7f2" stroke-width="5" stroke-linecap="round" stroke-linejoin="round"/>
  <path d="M30 54c-5-5-10-1-7 6l5 11c3 7 9 10 18 10h9c11 0 18-7 18-18V50" fill="none" stroke="#f7f7f2" stroke-width="5" stroke-linecap="round" stroke-linejoin="round"/>
  <path d="M52 20c8 0 14 5 14 12H38c0-7 6-12 14-12Z" fill="#c8ff00"/>
  <rect x="48" y="32" width="8" height="15" rx="4" fill="#ff8a00"/>
  <path d="M21 20l8 4m-5-12 6 8m44 4 8-4m-10 13 10 1" stroke="#18d9ff" stroke-width="4" stroke-linecap="round"/>
</svg>
