<svg xmlns="http://www.w3.org/2000/svg" viewBox="0 0 96 96" role="img" aria-label="playful eating style icon">
  <rect x="6" y="6" width="84" height="84" rx="16" fill="#101217"/>
  <path d="M48 18c11 0 20 7 20 17H28c0-10 9-17 20-17Z" fill="#c8ff00"/>
  <rect x="42" y="35" width="12" height="27" rx="6" fill="#ff8a00"/>
  <path d="M26 72c9-10 20-10 30 0 7 7 13 8 20 0" fill="none" stroke="#18d9ff" stroke-width="5" stroke-linecap="round"/>
  <path d="M23 32l-8-5m8 17-10 2m58-22 8-7m-4 24 10 3" stroke="#ff2ca8" stroke-width="5" stroke-linecap="round"/>
  <circle cx="27" cy="70" r="5" fill="#ff2ca8"/>
  <circle cx="74" cy="72" r="5" fill="#c8ff00"/>
</svg>
